{"title":"Spooks S09 - Spy Drama x264 RB58","uid":11197702,"size":3545438715,"categoryP":"video","categoryS":"tv_shows","magnet":"?xt=urn:btih:d720a284512ab4f2da150cf365ecc4f86f0f6730&amp;dn=Spooks+S09+-+Spy+Drama+x264+RB58&amp;tr=udp%3A%2F%2Ftracker.openbittorrent.com%3A80&amp;tr=udp%3A%2F%2Fopen.demonii.com%3A1337&amp;tr=udp%3A%2F%2Ftracker.coppersurfer.tk%3A6969&amp;tr=udp%3A%2F%2Fexodus.desync.com%3A6969","seeders":23,"leechers":10,"uploader":"RedBaron58","files":8,"time":1413119961,"description":"Spooks S09 - Spy Drama x264 mp4 \n(aka MI-5)\n &lt;a href=&quot;\nhttp://www.imdb.com/title/tt0160904/&quot; rel=&quot;nofollow&quot; target=&quot;_NEW&quot;&gt;\nhttp://www.imdb.com/title/tt0160904/&lt;/a&gt;\n\nTrailer:\n\n\nThank you for your kind comments and thumbs ups on my other torrents, your feedback is welcome.\n\n\nAbout the Series:\nThe series follows the work of a group of MI5 officers based at the service's Thames House headquarters, \nin a highly secure suite of offices known as The Grid.\n\nStaring Peter Firth and  Richard Armitage\n\nI hope you enjoy.\n\n\nTechnical: (All episodes encoded to the same settings)\n\nGeneral\nComplete name                            : H:Spooks S09Spooks S09E01 x264 RB58.mp4\nFormat                                   : MPEG-4\nFormat profile                           : Base Media / Version 2\nCodec ID                                 : mp42\nFile size                                : 419 MiB\nDuration                                 : 58mn 34s\nOverall bit rate mode                    : Variable\nOverall bit rate                         : 1 000 Kbps\nEncoded date                             : UTC 2014-09-23 11:29:20\nTagged date                              : UTC 2014-09-23 11:43:12\nWriting application                      : HandBrake 0.9.8 2012071700\n\nVideo\nID                                       : 1\nFormat                                   : AVC\nFormat/Info                              : Advanced Video Codec\nFormat profile                           : &lt;a class=&quot;__cf_email__&quot; href=&quot;/cdn-cgi/l/email-protection&quot; data-cfemail=&quot;682509010628245b4658&quot;&gt;[email&amp;#160;protected]&lt;/a&gt;&lt;script cf-hash='f9e31' type=&quot;text/javascript&quot;&gt;\n/* &lt;![CDATA[ */!function(){try{var t=&quot;currentScript&quot;in document?document.currentScript:function(){for(var t=document.getElementsByTagName(&quot;script&quot;),e=t.length;e--;)if(t[e].getAttribute(&quot;cf-hash&quot;))return t[e]}();if(t&amp;&amp;t.previousSibling){var e,r,n,i,c=t.previousSibling,a=c.getAttribute(&quot;data-cfemail&quot;);if(a){for(e=&quot;&quot;,r=parseInt(a.substr(0,2),16),n=2;a.length-n;n+=2)i=parseInt(a.substr(n,2),16)^r,e+=String.fromCharCode(i);e=document.createTextNode(e),c.parentNode.replaceChild(e,c)}}}catch(u){}}();/* ]]&gt; */&lt;/script&gt;\nFormat settings, CABAC                   : Yes\nFormat settings, ReFrames                : 4 frames\nCodec ID                                 : avc1\nCodec ID/Info                            : Advanced Video Coding\nDuration                                 : 58mn 34s\nBit rate mode                            : Variable\nBit rate                                 : 900 Kbps\nWidth                                    : 702 pixels\nHeight                                   : 576 pixels\nDisplay aspect ratio                     : 1.733\nFrame rate mode                          : Constant\nFrame rate                               : 25.000 fps\nColor space                              : YUV\nChroma subsampling                       : 4:2:0\nBit depth                                : 8 bits\nScan type                                : Progressive\nBits/(Pixel*Frame)                       : 0.089\nStream size                              : 377 MiB (90%)\nWriting library                          : x264 core 120\nEncoding settings                        : cabac=1 / ref=1 / deblock=1:0:0\nEncoded date                             : UTC 2014-09-23 11:29:20\nTagged date                              : UTC 2014-09-23 11:43:12\nColor primaries                          : BT.601 NTSC\nTransfer characteristics                 : BT.709\nMatrix coefficients                      : BT.601\n\nAudio\nID                                       : 2\nFormat                                   : AAC\nFormat/Info                              : Advanced Audio Codec\nFormat profile                           : LC\nCodec ID                                 : 40\nDuration                                 : 58mn 33s\nBit rate mode                            : Variable\nBit rate                                 : 96.0 Kbps\nMaximum bit rate                         : 181 Kbps\nChannel(s)                               : 2 channels\nChannel positions                        : Front: L R\nSampling rate                            : 48.0 KHz\nCompression mode                         : Lossy\nDelay relative to video                  : 80ms\nStream size                              : 40.2 MiB (10%)\nLanguage                                 : English\nEncoded date                             : UTC 2014-09-23 11:29:20\nTagged date                              : UTC 2014-09-23 11:43:11","torrent":{"xt":"urn:btih:d720a284512ab4f2da150cf365ecc4f86f0f6730","amp;dn":"Spooks+S09+-+Spy+Drama+x264+RB58","amp;tr":["udp%3A%2F%2Ftracker.openbittorrent.com%3A80","udp%3A%2F%2Fopen.demonii.com%3A1337","udp%3A%2F%2Ftracker.coppersurfer.tk%3A6969","udp%3A%2F%2Fexodus.desync.com%3A6969"],"infoHash":"d720a284512ab4f2da150cf365ecc4f86f0f6730","infoHashBuffer":{"type":"Buffer","data":[215,32,162,132,81,42,180,242,218,21,12,243,101,236,196,248,111,15,103,48]},"announce":[],"urlList":[]}}